<svg width="30" height="30" viewBox="0 0 30 30" fill="none" xmlns="http://www.w3.org/2000/svg">
<g id="raphael:no">
<path id="Vector" d="M14.9999 3.43781C8.61556 3.43781 3.43774 8.6128 3.43774 15C3.43774 21.3872 8.61556 26.5622 14.9999 26.5622C21.3862 26.5622 26.5621 21.3872 26.5621 15C26.5621 8.6128 21.3871 3.43781 14.9999 3.43781ZM14.9999 6.2503C16.7343 6.2503 18.3487 6.76406 19.7099 7.63781L7.63774 19.71C6.73178 18.3062 6.25002 16.6708 6.25024 15C6.25024 10.1756 10.1756 6.2503 14.9999 6.2503ZM14.9999 23.7497C13.3292 23.7495 11.6939 23.2678 10.2899 22.3622L22.3612 10.29C23.2671 11.6938 23.7489 13.3292 23.7487 15C23.7487 19.8244 19.8243 23.7497 14.9999 23.7497Z" fill="#1D242B"/>
</g>
</svg>
