<svg width="30" height="30" viewBox="0 0 30 30" fill="none" xmlns="http://www.w3.org/2000/svg">
<g id="carbon:rule-data-quality">
<path id="Vector" d="M28.125 26.8125L25.5 24.1875C25.9688 23.4375 26.25 22.5 26.25 21.5625C26.25 18.9375 24.1875 16.875 21.5625 16.875C18.9375 16.875 16.875 18.9375 16.875 21.5625C16.875 24.1875 18.9375 26.25 21.5625 26.25C22.5 26.25 23.4375 25.9688 24.1875 25.5L26.8125 28.125L28.125 26.8125ZM18.75 21.5625C18.75 19.9688 19.9688 18.75 21.5625 18.75C23.1562 18.75 24.375 19.9688 24.375 21.5625C24.375 23.1562 23.1562 24.375 21.5625 24.375C19.9688 24.375 18.75 23.1562 18.75 21.5625ZM7.5 15H16.875V16.875H7.5V15ZM7.5 9.375H18.75V11.25H7.5V9.375Z" fill="#1D242B"/>
<path id="Vector_2" d="M13.125 25.9688L8.25 23.3438C5.4375 21.9375 3.75 19.0312 3.75 15.9375V3.75H22.5V14.0625H24.375V3.75C24.375 2.71875 23.5312 1.875 22.5 1.875H3.75C2.71875 1.875 1.875 2.71875 1.875 3.75V15.9375C1.875 19.7812 3.9375 23.25 7.3125 25.0312L13.125 28.125V25.9688Z" fill="#1D242B"/>
</g>
</svg>
