<svg width="30" height="30" viewBox="0 0 30 30" fill="none" xmlns="http://www.w3.org/2000/svg">
<g id="material-symbols:communication">
<path id="Vector" d="M12.75 16.5L11.4375 15.1875C11.6042 14.9583 11.7188 14.7237 11.7812 14.4837C11.8438 14.2437 11.875 13.9992 11.875 13.75C11.875 13.5 11.8438 13.255 11.7812 13.015C11.7188 12.775 11.6042 12.5512 11.4375 12.3437L12.75 11C13.0833 11.3958 13.3333 11.8333 13.5 12.3125C13.6667 12.7917 13.75 13.2708 13.75 13.75C13.75 14.2292 13.6667 14.7033 13.5 15.1725C13.3333 15.6417 13.0833 16.0842 12.75 16.5ZM15.4062 19.1875L14.0625 17.8437C14.5833 17.2604 14.9742 16.6146 15.235 15.9062C15.4958 15.1979 15.6258 14.4792 15.625 13.75C15.625 13.0208 15.495 12.3075 15.235 11.61C14.975 10.9125 14.5842 10.2717 14.0625 9.6875L15.4062 8.34375C16.1146 9.11458 16.6408 9.96375 16.985 10.8913C17.3292 11.8188 17.5008 12.7717 17.5 13.75C17.5 14.7292 17.3279 15.6875 16.9837 16.625C16.6396 17.5625 16.1137 18.4167 15.4062 19.1875ZM6.25 15C5.5625 15 4.97375 14.755 4.48375 14.265C3.99375 13.775 3.74917 13.1867 3.75 12.5C3.75 11.8125 3.995 11.2237 4.485 10.7337C4.975 10.2437 5.56333 9.99917 6.25 10C6.9375 10 7.52625 10.245 8.01625 10.735C8.50625 11.225 8.75083 11.8133 8.75 12.5C8.75 13.1875 8.505 13.7762 8.015 14.2662C7.525 14.7562 6.93667 15.0008 6.25 15ZM1.25 20V19.2812C1.25 18.7812 1.38542 18.3229 1.65625 17.9062C1.92708 17.4896 2.30208 17.1771 2.78125 16.9688C3.32292 16.7396 3.88042 16.5625 4.45375 16.4375C5.02708 16.3125 5.62583 16.25 6.25 16.25C6.875 16.25 7.47417 16.3125 8.0475 16.4375C8.62083 16.5625 9.17792 16.7396 9.71875 16.9688C10.1979 17.1771 10.5729 17.4896 10.8438 17.9062C11.1146 18.3229 11.25 18.7812 11.25 19.2812V20H1.25ZM23.75 15C23.0625 15 22.4737 14.755 21.9837 14.265C21.4937 13.775 21.2492 13.1867 21.25 12.5C21.25 11.8125 21.495 11.2237 21.985 10.7337C22.475 10.2437 23.0633 9.99917 23.75 10C24.4375 10 25.0263 10.245 25.5163 10.735C26.0063 11.225 26.2508 11.8133 26.25 12.5C26.25 13.1875 26.005 13.7762 25.515 14.2662C25.025 14.7562 24.4367 15.0008 23.75 15ZM18.75 20V19.2812C18.75 18.7812 18.8854 18.3229 19.1562 17.9062C19.4271 17.4896 19.8021 17.1771 20.2812 16.9688C20.8229 16.7396 21.38 16.5625 21.9525 16.4375C22.525 16.3125 23.1242 16.25 23.75 16.25C24.375 16.25 24.9738 16.3125 25.5462 16.4375C26.1187 16.5625 26.6763 16.7396 27.2188 16.9688C27.6979 17.1771 28.0729 17.4896 28.3438 17.9062C28.6146 18.3229 28.75 18.7812 28.75 19.2812V20H18.75Z" fill="#1D242B"/>
</g>
</svg>
