<svg width="30" height="30" viewBox="0 0 30 30" fill="none" xmlns="http://www.w3.org/2000/svg">
<path d="M25.4188 4.02329C25.2582 4.02622 25.0968 4.04807 24.9358 4.09079C24.4396 4.22262 24.0394 4.53094 23.7382 4.93981C17.1624 7.08194 10.9274 9.05743 4.41069 11.1563C2.0837 11.9057 0.625533 14.1541 1.30487 16.2413C1.98438 18.3284 4.48897 19.3044 6.81473 18.5426L6.81462 18.5428C13.2254 16.4435 19.3785 14.4977 25.8646 12.4106C25.8974 12.423 25.9308 12.4334 25.9639 12.4446C25.8104 12.6165 25.7163 12.8428 25.7163 13.0914C25.7163 13.6284 26.1516 14.0637 26.6886 14.0637C27.2256 14.0637 27.661 13.6283 27.661 13.0914C27.661 12.8383 27.5635 12.6086 27.4051 12.4357C28.1522 12.1506 28.6563 11.4474 28.9013 10.6252C29.1677 9.73126 29.1652 8.65331 28.8671 7.55022C28.569 6.44702 28.0276 5.51292 27.3472 4.87178C26.8367 4.39096 26.2185 4.06378 25.5791 4.02628C25.5258 4.02323 25.4723 4.02217 25.4188 4.02311V4.02329ZM25.4479 5.11782C25.4748 5.11743 25.5017 5.11811 25.5286 5.11987C25.8548 5.14085 26.221 5.31557 26.5962 5.66889C27.0963 6.13999 27.5594 6.90903 27.81 7.83604C28.0222 8.6212 28.0444 9.38274 27.9279 9.99534H24.8351C24.629 9.63165 24.4536 9.21299 24.3299 8.75561C24.0794 7.82854 24.0929 6.9337 24.288 6.27909C24.4831 5.62448 24.8225 5.25387 25.217 5.14911C25.2923 5.12917 25.3699 5.11862 25.4478 5.1177L25.4479 5.11782ZM23.1971 6.11643C22.9735 6.97975 22.9911 7.99923 23.2727 9.04143C23.3604 9.367 23.4726 9.68549 23.6083 9.99417H14.7477C10.974 11.2095 7.37337 12.3676 5.17645 13.0756C3.81473 13.5142 3.10499 14.6815 3.39485 15.5713C3.68465 16.4612 4.95239 16.9971 6.30989 16.5527C10.2292 15.2701 17.9706 12.7799 24.0534 10.8221C24.2737 11.1624 24.522 11.4647 24.7928 11.7199C24.7967 11.7234 24.8007 11.7268 24.8045 11.7305C18.6595 13.7082 10.6448 16.2856 6.65044 17.5928C4.84417 18.184 2.87559 17.5146 2.35294 15.91C1.83028 14.3054 3.0328 12.6158 4.83954 12.0337C8.82714 10.7487 17.0388 8.10815 23.1971 6.11643ZM26.6881 16.6753C25.695 20.3817 24.3146 19.867 24.3146 22.0366C24.3146 23.3468 25.3779 24.4102 26.6881 24.4102C27.9982 24.4102 29.0616 23.3469 29.0616 22.0366C29.0616 19.6947 27.6989 20.4476 26.6881 16.6753Z" fill="#1D242B"/>
</svg>
