<svg width="30" height="30" viewBox="0 0 30 30" fill="none" xmlns="http://www.w3.org/2000/svg">
<g id="mingcute:mail-send-fill" clip-path="url(#clip0_137_786)">
<g id="Group">
<path id="Vector" d="M25.0001 5C25.6631 5 26.299 5.26339 26.7678 5.73223C27.2367 6.20107 27.5001 6.83696 27.5001 7.5V22.5C27.5001 23.163 27.2367 23.7989 26.7678 24.2678C26.299 24.7366 25.6631 25 25.0001 25H5.00008C4.33704 25 3.70115 24.7366 3.23231 24.2678C2.76347 23.7989 2.50008 23.163 2.50008 22.5V21.25H5.00008V22.5H25.0001V9.27875L16.3313 17.9475C15.9797 18.299 15.5029 18.4965 15.0057 18.4965C14.5085 18.4965 14.0317 18.299 13.6801 17.9475L5.00008 9.2675V10H2.50008V7.5C2.50008 6.83696 2.76347 6.20107 3.23231 5.73223C3.70115 5.26339 4.33704 5 5.00008 5H25.0001ZM7.50008 16.25C7.81868 16.2504 8.12512 16.3723 8.35679 16.5911C8.58846 16.8098 8.72787 17.1087 8.74654 17.4267C8.76522 17.7448 8.66174 18.058 8.45725 18.3023C8.25276 18.5466 7.9627 18.7036 7.64633 18.7413L7.50008 18.75H1.25008C0.93148 18.7496 0.62504 18.6277 0.39337 18.4089C0.161699 18.1902 0.0222863 17.8913 0.00361489 17.5733C-0.0150565 17.2552 0.0884232 16.942 0.292911 16.6977C0.497399 16.4534 0.78746 16.2964 1.10383 16.2587L1.25008 16.25H7.50008ZM6.25008 12.5C6.5816 12.5 6.89954 12.6317 7.13396 12.8661C7.36838 13.1005 7.50008 13.4185 7.50008 13.75C7.50008 14.0815 7.36838 14.3995 7.13396 14.6339C6.89954 14.8683 6.5816 15 6.25008 15H2.50008C2.16856 15 1.85062 14.8683 1.6162 14.6339C1.38178 14.3995 1.25008 14.0815 1.25008 13.75C1.25008 13.4185 1.38178 13.1005 1.6162 12.8661C1.85062 12.6317 2.16856 12.5 2.50008 12.5H6.25008Z" fill="#1D242B"/>
</g>
</g>
<defs>
<clipPath id="clip0_137_786">
<rect width="30" height="30" fill="white"/>
</clipPath>
</defs>
</svg>
